<svg xmlns="http://www.w3.org/2000/svg" viewBox="0 0 720 184" width="720" height="184" role="img" aria-label="Make it real. Then make it checkable. Deepesh Kakkar."><title>Make it real. Then make it checkable. Deepesh Kakkar.</title><style>
.s{font-family:ui-sans-serif,-apple-system,BlinkMacSystemFont,Segoe UI,Helvetica,Arial,sans-serif} .m{font-family:ui-monospace,SFMono-Regular,Menlo,Consolas,monospace}
.p{stroke-dasharray:.035 1.2;stroke-dashoffset:.035;animation:run var(--d,5s) linear infinite var(--o,0s)}
.b{animation:blink 2.4s ease-in-out infinite}
@keyframes run{to{stroke-dashoffset:-1.165}}
@keyframes blink{50%{opacity:.2}}
@media (prefers-reduced-motion:reduce){.p{animation:none;opacity:0}.b{animation:none}}
</style><defs><pattern id="g" width="24" height="24" patternUnits="userSpaceOnUse"><path d="M24 0H0V24" fill="none" stroke="#fff" stroke-opacity=".03"/></pattern><clipPath id="c"><rect width="720" height="184" rx="14"/></clipPath></defs><g clip-path="url(#c)"><rect width="720" height="184" fill="#0B0D11"/><rect width="720" height="184" fill="url(#g)"/><path d="M12 18h12M18 12v12" stroke="#7A8494" stroke-opacity=".55"/><path d="M696 18h12M702 12v12" stroke="#7A8494" stroke-opacity=".55"/><path d="M12 166h12M18 160v12" stroke="#7A8494" stroke-opacity=".55"/><path d="M696 166h12M702 160v12" stroke="#7A8494" stroke-opacity=".55"/><path d="M40 64H330" fill="none" stroke="#222933" stroke-width="1.4"/><path class="p" style="--d:4s;--o:0s" d="M40 64H330" pathLength="1" fill="none" stroke="#FF7A1A" stroke-width="3.2" stroke-linecap="round"/><path d="M680 64H390" fill="none" stroke="#222933" stroke-width="1.4"/><path class="p" style="--d:4s;--o:-2s" d="M680 64H390" pathLength="1" fill="none" stroke="#FF7A1A" stroke-width="3.2" stroke-linecap="round"/><circle cx="360" cy="64" r="22" fill="none" stroke="#222933"/><circle cx="360" cy="64" r="13" fill="none" stroke="#FF7A1A" stroke-opacity=".45"/><circle class="b" cx="360" cy="64" r="4" fill="#FF7A1A"/><text class="s" x="360.0" y="128.0" font-size="24" fill="#ECEFF4" text-anchor="middle" font-weight="600">Make it real. Then make it checkable.</text><text class="m" x="360.0" y="156.0" font-size="13" fill="#7A8494" text-anchor="middle" letter-spacing="2">DEEPESH KAKKAR · AI / FULL-STACK ENGINEER</text><rect x=".5" y=".5" width="719" height="183" rx="14" fill="none" stroke="#222933"/></g></svg>
